<svg width="81" height="81" viewBox="0 0 81 81" fill="none" xmlns="http://www.w3.org/2000/svg">
<path d="M27.5601 24.9L27.9301 5.46002H56.0001L55.5801 24.9" fill="#F2F2F2"/>
<path d="M55.5801 25.77C55.3493 25.7622 55.1305 25.665 54.97 25.499C54.8096 25.3329 54.7199 25.111 54.7201 24.88L55.0801 6.33002H28.7901L28.4301 24.91C28.4288 25.0251 28.4046 25.1388 28.3591 25.2446C28.3135 25.3503 28.2474 25.4459 28.1647 25.5259C28.0819 25.6059 27.984 25.6686 27.8768 25.7106C27.7696 25.7525 27.6551 25.7727 27.5401 25.77C27.3092 25.7622 27.0905 25.665 26.93 25.499C26.7696 25.3329 26.6799 25.111 26.6801 24.88L27.0501 5.44002C27.0553 5.21011 27.1503 4.99138 27.3148 4.83065C27.4792 4.66992 27.7001 4.57996 27.9301 4.58002H56.0001C56.2325 4.58334 56.4547 4.67652 56.6201 4.84002C56.7032 4.9219 56.7684 5.02021 56.8114 5.12868C56.8545 5.23715 56.8744 5.3534 56.8701 5.47002L56.5001 24.91C56.5003 25.0282 56.4763 25.1451 56.4294 25.2536C56.3824 25.3621 56.3137 25.4597 56.2273 25.5404C56.141 25.6211 56.039 25.6831 55.9276 25.7226C55.8162 25.7621 55.6979 25.7783 55.5801 25.77Z" fill="#222222"/>
<path d="M30.64 24.61L31 10.28H52.53V24.61" fill="#19B5BC"/>
<path d="M30.64 25.48C30.5248 25.4774 30.4114 25.452 30.3061 25.4053C30.2009 25.3585 30.106 25.2913 30.0269 25.2076C29.9479 25.1239 29.8862 25.0253 29.8455 24.9176C29.8048 24.8098 29.786 24.6951 29.79 24.58L30.19 10.25C30.1944 10.0328 30.28 9.82508 30.4299 9.66778C30.5798 9.51048 30.7832 9.41496 31 9.40002H52.53C52.6454 9.40007 52.7596 9.42308 52.8661 9.46772C52.9725 9.51235 53.069 9.57773 53.15 9.66002C53.3107 9.82635 53.4004 10.0487 53.4 10.28V24.61C53.4 24.8408 53.3083 25.0621 53.1451 25.2252C52.982 25.3884 52.7607 25.48 52.53 25.48C52.414 25.4814 52.299 25.4595 52.1916 25.4158C52.0842 25.372 51.9867 25.3072 51.9047 25.2253C51.8227 25.1433 51.758 25.0457 51.7142 24.9384C51.6705 24.831 51.6486 24.716 51.65 24.6V11.15H31.89L31.51 24.63C31.5047 24.8573 31.4108 25.0735 31.2482 25.2323C31.0856 25.3912 30.8673 25.4801 30.64 25.48Z" fill="#222222"/>
<path d="M44.56 14.65C43.9465 14.7076 43.353 14.8985 42.821 15.2094C42.289 15.5203 41.8313 15.9437 41.48 16.45C41.1302 15.943 40.6726 15.5195 40.14 15.21C39.6117 14.8945 39.0217 14.6967 38.41 14.63C38.0004 14.6069 37.5904 14.6705 37.207 14.8164C36.8235 14.9624 36.4751 15.1876 36.1845 15.4773C35.8939 15.7669 35.6676 16.1146 35.5204 16.4976C35.3732 16.8805 35.3083 17.2902 35.33 17.7C35.33 20.79 39.33 25.05 41.45 26.49C43.58 25.06 47.61 20.62 47.62 17.75C47.6438 17.3386 47.5825 16.9267 47.44 16.54C47.2934 16.1636 47.0684 15.8228 46.78 15.54C46.5017 15.2414 46.16 15.009 45.78 14.86C45.3968 14.7168 44.9887 14.6522 44.58 14.67L44.56 14.65Z" fill="#F27F70"/>
<path d="M41.45 27.36C41.2754 27.3597 41.1048 27.3075 40.96 27.21C38.76 25.72 34.45 21.21 34.45 17.7C34.4261 17.1805 34.5148 16.662 34.71 16.18C34.897 15.685 35.1867 15.2351 35.56 14.86C35.9372 14.483 36.3893 14.1895 36.8871 13.9983C37.385 13.807 37.9174 13.7225 38.45 13.75C39.2072 13.8247 39.9382 14.0673 40.59 14.46C40.909 14.6481 41.2074 14.8693 41.48 15.12C41.7552 14.8652 42.0569 14.6406 42.38 14.45C43.0196 14.0774 43.7329 13.8487 44.47 13.78H44.52C45.0449 13.7593 45.5686 13.8443 46.06 14.03C46.5768 14.2207 47.0424 14.5288 47.42 14.93C47.7901 15.3018 48.0765 15.7485 48.26 16.24C48.4465 16.7448 48.5248 17.2831 48.49 17.82C48.49 21.04 44.16 25.73 41.94 27.22C41.794 27.314 41.6235 27.3627 41.45 27.36ZM38.24 15.49C37.9967 15.4931 37.7561 15.5406 37.53 15.63C37.2495 15.7308 36.9963 15.895 36.79 16.11C36.5862 16.304 36.4318 16.5441 36.34 16.81C36.2335 17.0767 36.1858 17.3632 36.2 17.65C36.2 20.18 39.42 23.81 41.45 25.4C43.54 23.77 46.74 19.99 46.74 17.74C46.7662 17.4316 46.7253 17.1211 46.62 16.83C46.5159 16.5678 46.3594 16.3296 46.16 16.13C45.9608 15.9206 45.7185 15.7568 45.45 15.65C45.1833 15.5574 44.9022 15.5134 44.62 15.52C44.1406 15.5687 43.677 15.7186 43.26 15.96C42.8371 16.211 42.4751 16.5525 42.2 16.96C42.1156 17.072 42.007 17.1634 41.8823 17.2275C41.7576 17.2915 41.6201 17.3266 41.48 17.33C41.3379 17.3311 41.1978 17.2969 41.0721 17.2306C40.9465 17.1643 40.8392 17.0679 40.76 16.95C40.485 16.5423 40.123 16.2007 39.7 15.95C39.2761 15.6964 38.8015 15.5393 38.31 15.49H38.24Z" fill="#222222"/>
<path d="M64.79 47.59C64.47 41.36 63.7 35.17 63.21 29C62.72 23.06 57.77 22.74 57.77 22.74H28.77C27.372 22.6733 25.9821 22.9879 24.7491 23.6502C23.5161 24.3125 22.4864 25.2976 21.77 26.5C21.77 26.5 29.2 26.62 30.19 35.81C31.18 45 28.42 48.08 28.42 52.2C28.42 60.78 32.42 64.82 31.97 74.5H32.72C36.19 74.38 43.6 74.29 48.39 74.5C52.57 74.64 59.52 75.03 62.62 71.61C65.09 68.89 64.79 63.46 64.94 59.97C65.1 55.82 65 51.7 64.79 47.59Z" fill="#6C9DEE"/>
<path d="M52.09 75.46C50.95 75.46 49.85 75.46 48.87 75.39H48.36C43.67 75.18 36.27 75.27 32.75 75.39H32C31.8821 75.39 31.7655 75.3661 31.6573 75.3197C31.549 75.2733 31.4512 75.2053 31.37 75.12C31.2863 75.0369 31.2215 74.9367 31.1801 74.8262C31.1387 74.7158 31.1216 74.5977 31.13 74.48C31.2597 70.4229 30.6602 66.3754 29.36 62.53C28.2341 59.1986 27.6205 55.7156 27.54 52.2C27.6017 50.6274 27.8742 49.0702 28.35 47.57C29.4824 43.7731 29.8227 39.7839 29.35 35.85C28.46 27.58 22.05 27.33 21.78 27.32C21.624 27.3232 21.4699 27.2849 21.3337 27.2089C21.1974 27.133 21.0837 27.0222 21.0043 26.8879C20.925 26.7536 20.8827 26.6006 20.882 26.4445C20.8812 26.2885 20.9219 26.1351 21 26C21.7955 24.66 22.941 23.562 24.3134 22.8238C25.6858 22.0856 27.2334 21.7351 28.79 21.81H57.79C57.9 21.81 63.56 22.26 64.1 28.87C64.29 31.26 64.52 33.64 64.75 36.02C65.11 39.79 65.49 43.69 65.68 47.54C65.93 52.16 65.98 56.23 65.83 60C65.83 60.52 65.83 61.07 65.83 61.65C65.75 65.21 65.65 69.65 63.33 72.19C60.74 75 56.11 75.46 52.09 75.46ZM41.18 73.46C43.75 73.46 46.35 73.46 48.43 73.58H48.93C53.05 73.72 59.27 73.94 61.93 70.96C63.82 68.88 63.93 64.82 63.93 61.55C63.93 60.96 63.93 60.39 63.93 59.87C64.07 56.16 64.02 52.13 63.78 47.57C63.58 43.75 63.21 39.88 62.85 36.13C62.62 33.74 62.39 31.35 62.2 28.96C61.78 23.88 57.74 23.51 57.57 23.5H28.77C27.7512 23.4442 26.7328 23.6173 25.7897 24.0066C24.8465 24.396 24.0026 24.9917 23.32 25.75C25.75 26.35 30.32 28.42 31.06 35.6C31.5681 39.7622 31.2072 43.9845 30 48C29.5675 49.3544 29.3153 50.7598 29.25 52.18C29.3339 55.523 29.9239 58.8339 31 62C32.2534 65.7347 32.8819 69.6507 32.86 73.59C34.86 73.55 38 73.5 41.18 73.5V73.46Z" fill="#222222"/>
<path d="M32 74.54C28.24 74.75 21.1 75.48 17.25 71.33C13.13 66.88 15.74 40.95 18.25 34.56C19.45 31.46 20.41 28.56 21.83 26.45" fill="#4583EA"/>
<path d="M27.58 75.6C23.84 75.6 19.43 75 16.58 71.92C12.11 67.09 14.88 40.66 17.39 34.24C17.61 33.69 17.81 33.15 18.01 32.61C18.7799 30.3027 19.7993 28.0862 21.05 26C21.1826 25.8064 21.3867 25.6734 21.6174 25.6303C21.8481 25.5871 22.0864 25.6374 22.28 25.77C22.4736 25.9026 22.6066 26.1067 22.6498 26.3374C22.6929 26.568 22.6426 26.8064 22.51 27C21.3268 28.9857 20.3644 31.0949 19.64 33.29C19.44 33.83 19.23 34.38 19.02 34.93C16.42 41.56 14.14 66.79 17.85 70.79C21.18 74.38 27.43 74 31.16 73.79H31.91C32.1296 73.7973 32.3385 73.8864 32.4957 74.0398C32.6529 74.1933 32.747 74.4 32.7595 74.6193C32.772 74.8386 32.7021 75.0547 32.5634 75.2251C32.4247 75.3954 32.2273 75.5078 32.01 75.54H31.27C30.19 75.52 28.93 75.6 27.58 75.6Z" fill="#222222"/>
<path d="M32 74.54C32.49 64.86 28.4501 60.82 28.4501 52.24C28.4501 48.12 31.21 44.99 30.22 35.8C29.23 26.61 21.8 26.49 21.8 26.49" fill="#4583EA"/>
<path d="M32 75.41C31.8848 75.4049 31.7718 75.377 31.6675 75.3278C31.5632 75.2786 31.4698 75.2092 31.3925 75.1236C31.3153 75.038 31.2559 74.9379 31.2177 74.8292C31.1795 74.7204 31.1633 74.6051 31.17 74.49C31.3231 70.416 30.7265 66.3485 29.41 62.49C28.2936 59.1706 27.6867 55.7012 27.61 52.2C27.6718 50.6274 27.9442 49.0702 28.42 47.57C29.5524 43.773 29.8928 39.7839 29.42 35.85C28.53 27.58 22.12 27.33 21.85 27.32C21.7357 27.3174 21.6231 27.2923 21.5185 27.2462C21.414 27.2001 21.3195 27.1338 21.2406 27.0511C21.1617 26.9685 21.0998 26.8711 21.0585 26.7645C21.0172 26.6579 20.9973 26.5443 21 26.43C21.0101 26.2017 21.1067 25.9858 21.2701 25.8261C21.4335 25.6664 21.6515 25.5749 21.88 25.57C21.97 25.57 30.1 25.82 31.16 35.66C31.682 39.8049 31.3416 44.0129 30.16 48.02C29.7275 49.3744 29.4754 50.7798 29.41 52.2C29.4369 55.5287 29.9731 58.8336 31 62C32.3712 66.0329 32.9881 70.2837 32.82 74.54C32.8204 74.7623 32.7356 74.9764 32.5831 75.1382C32.4306 75.3 32.222 75.3972 32 75.41Z" fill="#222222"/>
<path d="M25.09 46.33C25.5271 46.33 25.9544 46.2004 26.3178 45.9575C26.6812 45.7147 26.9645 45.3695 27.1318 44.9657C27.299 44.5619 27.3428 44.1175 27.2575 43.6888C27.1723 43.2601 26.9618 42.8663 26.6527 42.5573C26.3436 42.2482 25.9499 42.0377 25.5212 41.9524C25.0925 41.8672 24.6481 41.9109 24.2443 42.0782C23.8405 42.2455 23.4953 42.5287 23.2525 42.8922C23.0096 43.2556 22.88 43.6829 22.88 44.12C22.88 44.4102 22.9372 44.6976 23.0482 44.9657C23.1593 45.2338 23.3221 45.4775 23.5273 45.6827C23.7325 45.8879 23.9761 46.0507 24.2443 46.1617C24.5124 46.2728 24.7998 46.33 25.09 46.33Z" fill="#7CA8F0"/>
<path d="M25.09 47.2C24.478 47.202 23.8792 47.0222 23.3695 46.6834C22.8598 46.3446 22.4622 45.8622 22.2271 45.2971C21.992 44.7321 21.93 44.11 22.0489 43.5096C22.1678 42.9093 22.4623 42.3578 22.895 41.9251C23.3278 41.4923 23.8793 41.1978 24.4796 41.0789C25.0799 40.96 25.7021 41.022 26.2671 41.2571C26.8321 41.4923 27.3146 41.8899 27.6534 42.3995C27.9922 42.9092 28.172 43.508 28.17 44.12C28.1673 44.9361 27.842 45.7179 27.265 46.295C26.6879 46.872 25.906 47.1974 25.09 47.2ZM25.09 42.78C24.8245 42.778 24.5645 42.8549 24.3428 43.001C24.1211 43.147 23.9478 43.3556 23.8449 43.6002C23.7419 43.8449 23.7139 44.1147 23.7645 44.3752C23.8151 44.6358 23.9419 44.8755 24.1289 45.0639C24.3159 45.2523 24.5546 45.381 24.8149 45.4335C25.0751 45.486 25.345 45.4601 25.5904 45.3589C25.8359 45.2578 26.0457 45.0861 26.1934 44.8655C26.3411 44.6449 26.42 44.3855 26.42 44.12C26.42 43.7663 26.2802 43.427 26.031 43.176C25.7819 42.925 25.4436 42.7826 25.09 42.78Z" fill="#222222"/>
<path d="M25.84 32.56C25.8558 32.3817 25.8342 32.2021 25.7768 32.0326C25.7194 31.8631 25.6273 31.7074 25.5065 31.5754C25.3856 31.4434 25.2386 31.338 25.0748 31.2659C24.911 31.1938 24.734 31.1566 24.555 31.1566C24.376 31.1566 24.199 31.1938 24.0352 31.2659C23.8714 31.338 23.7244 31.4434 23.6036 31.5754C23.4827 31.7074 23.3906 31.8631 23.3332 32.0326C23.2758 32.2021 23.2543 32.3817 23.27 32.56V34.62C23.2543 34.7983 23.2758 34.9779 23.3332 35.1474C23.3906 35.3169 23.4827 35.4726 23.6036 35.6046C23.7244 35.7366 23.8714 35.842 24.0352 35.9141C24.199 35.9863 24.376 36.0235 24.555 36.0235C24.734 36.0235 24.911 35.9863 25.0748 35.9141C25.2386 35.842 25.3856 35.7366 25.5065 35.6046C25.6273 35.4726 25.7194 35.3169 25.7768 35.1474C25.8342 34.9779 25.8558 34.7983 25.84 34.62V32.56Z" fill="#222222"/>
<path d="M35.86 27.79C35.0325 27.79 34.2389 28.1187 33.6538 28.7038C33.0687 29.2889 32.74 30.0825 32.74 30.91V31.91C32.74 32.7375 33.0687 33.531 33.6538 34.1162C34.2389 34.7013 35.0325 35.03 35.86 35.03C36.2697 35.0326 36.6759 34.9545 37.0555 34.8002C37.435 34.6458 37.7805 34.4182 38.072 34.1303C38.3636 33.8425 38.5956 33.5 38.7549 33.1224C38.9141 32.7449 38.9974 32.3397 39 31.93V30.93C39.0026 30.5169 38.9232 30.1074 38.7664 29.7252C38.6095 29.3431 38.3783 28.9958 38.0862 28.7037C37.7941 28.4116 37.4469 28.1804 37.0648 28.0236C36.6826 27.8667 36.2731 27.7873 35.86 27.79Z" fill="#7CA8F0"/>
<path d="M35.86 35.92C34.7991 35.92 33.7817 35.4986 33.0316 34.7484C32.2814 33.9983 31.86 32.9808 31.86 31.92V30.92C31.86 29.8591 32.2814 28.8417 33.0316 28.0916C33.7817 27.3414 34.7991 26.92 35.86 26.92C36.9209 26.92 37.9383 27.3414 38.6884 28.0916C39.4386 28.8417 39.86 29.8591 39.86 30.92V31.92C39.86 32.9808 39.4386 33.9983 38.6884 34.7484C37.9383 35.4986 36.9209 35.92 35.86 35.92ZM35.86 28.66C35.2632 28.66 34.691 28.897 34.269 29.319C33.847 29.7409 33.61 30.3132 33.61 30.91V31.91C33.61 32.5067 33.847 33.079 34.269 33.501C34.691 33.9229 35.2632 34.16 35.86 34.16C36.4567 34.16 37.029 33.9229 37.451 33.501C37.8729 33.079 38.11 32.5067 38.11 31.91V30.91C38.1113 30.615 38.0543 30.3226 37.9424 30.0497C37.8304 29.7768 37.6656 29.5287 37.4575 29.3196C37.2493 29.1105 37.0019 28.9446 36.7295 28.8314C36.4571 28.7182 36.165 28.66 35.87 28.66H35.86Z" fill="#222222"/>
<path d="M46.31 68C49.1086 68 51.8444 67.1701 54.1714 65.6153C56.4983 64.0605 58.312 61.8506 59.3829 59.265C60.4539 56.6794 60.7341 53.8343 60.1881 51.0895C59.6422 48.3447 58.2945 45.8234 56.3156 43.8445C54.3367 41.8655 51.8154 40.5179 49.0706 39.9719C46.3257 39.4259 43.4806 39.7061 40.8951 40.7771C38.3095 41.8481 36.0996 43.6617 34.5447 45.9887C32.9899 48.3157 32.16 51.0514 32.16 53.85C32.1627 57.602 33.6543 61.1996 36.3074 63.8527C38.9605 66.5057 42.558 67.9974 46.31 68Z" fill="#7CA8F0"/>
<path d="M46.3099 68.87C43.3432 68.87 40.4431 67.9903 37.9764 66.342C35.5097 64.6938 33.5871 62.3511 32.4517 59.6103C31.3164 56.8694 31.0194 53.8534 31.5982 50.9436C32.1769 48.0339 33.6056 45.3612 35.7033 43.2634C37.8011 41.1656 40.4739 39.737 43.3836 39.1582C46.2933 38.5794 49.3093 38.8765 52.0502 40.0118C54.7911 41.1471 57.1338 43.0697 58.782 45.5364C60.4302 48.0032 61.3099 50.9033 61.3099 53.87C61.3099 55.8398 60.922 57.7904 60.1681 59.6103C59.4143 61.4301 58.3094 63.0837 56.9165 64.4766C55.5237 65.8695 53.8701 66.9744 52.0502 67.7282C50.2303 68.482 48.2798 68.87 46.3099 68.87ZM46.3099 40.57C43.683 40.568 41.1144 41.3452 38.9292 42.8032C36.7441 44.2612 35.0404 46.3346 34.0337 48.761C33.027 51.1875 32.7626 53.8579 33.2739 56.4347C33.7852 59.0114 35.0492 61.3786 36.906 63.2368C38.7629 65.0951 41.1291 66.3609 43.7055 66.8741C46.2818 67.3873 48.9525 67.1249 51.3797 66.1201C53.8069 65.1152 55.8815 63.4131 57.3412 61.229C58.8008 59.0449 59.5799 56.477 59.5799 53.85C59.5747 50.3313 58.1752 46.958 55.688 44.469C53.2008 41.9799 49.8287 40.5779 46.3099 40.57Z" fill="#222222"/>
<path d="M46.31 63.47C48.2067 63.47 50.0608 62.9075 51.6379 61.8538C53.215 60.8 54.4441 59.3023 55.17 57.5499C55.8958 55.7976 56.0857 53.8693 55.7157 52.0091C55.3457 50.1488 54.4323 48.44 53.0911 47.0988C51.7499 45.7576 50.0412 44.8443 48.1809 44.4743C46.3206 44.1042 44.3924 44.2941 42.64 45.02C40.8877 45.7458 39.3899 46.975 38.3362 48.5521C37.2824 50.1291 36.72 51.9833 36.72 53.88C36.72 56.4234 37.7303 58.8627 39.5288 60.6611C41.3273 62.4596 43.7665 63.47 46.31 63.47Z" fill="#6C9DEE"/>
<path d="M46.31 64.34C44.2383 64.342 42.2127 63.7294 40.4894 62.5797C38.7661 61.43 37.4225 59.7949 36.6289 57.8813C35.8352 55.9678 35.627 53.8618 36.0307 51.8299C36.4343 49.798 37.4317 47.9315 38.8966 46.4666C40.3614 45.0018 42.2279 44.0044 44.2598 43.6007C46.2917 43.1971 48.3977 43.4052 50.3113 44.1989C52.2248 44.9926 53.8599 46.3361 55.0096 48.0594C56.1593 49.7828 56.7719 51.8084 56.77 53.88C56.7647 56.6526 55.6609 59.31 53.7005 61.2705C51.74 63.231 49.0825 64.3347 46.31 64.34ZM46.31 45.16C44.584 45.1541 42.8952 45.6605 41.4572 46.615C40.0193 47.5696 38.897 48.9293 38.2324 50.5222C37.5678 52.115 37.3908 53.8693 37.7239 55.5627C38.0569 57.2562 38.8851 58.8128 40.1034 60.0353C41.3217 61.2578 42.8754 62.0913 44.5677 62.4302C46.26 62.7691 48.0149 62.5982 49.61 61.9391C51.2051 61.28 52.5688 60.1623 53.5283 58.7277C54.4878 57.2931 54.9999 55.606 55 53.88C54.9973 51.5733 54.0819 49.3614 52.4536 47.7275C50.8254 46.0936 48.6166 45.1706 46.31 45.16Z" fill="#222222"/>
<path d="M52.11 53.85C52.0794 54.582 51.9097 55.3015 51.61 55.97C51.2993 56.6326 50.8609 57.2273 50.32 57.72C49.7841 58.218 49.1507 58.5993 48.46 58.84C47.7721 59.0903 47.0409 59.1991 46.31 59.16C45.5996 59.1898 44.8907 59.0738 44.2269 58.8193C43.5631 58.5647 42.9583 58.177 42.45 57.68C41.723 56.8981 41.2277 55.9294 41.0193 54.8823C40.811 53.8352 40.8977 52.7507 41.27 51.75C41.5363 51.0929 41.9345 50.4973 42.44 50C42.9438 49.4907 43.546 49.0892 44.21 48.82C44.8756 48.5467 45.5906 48.4139 46.31 48.43C47.0498 48.4085 47.7867 48.5308 48.48 48.79C49.1714 49.0529 49.8036 49.4506 50.34 49.96C50.8788 50.4679 51.3136 51.0759 51.62 51.75C51.9224 52.4242 52.0889 53.1514 52.11 53.89V53.85Z" fill="#222222"/>
<path d="M44.48 30.53C44.4958 30.3517 44.4742 30.1721 44.4168 30.0026C44.3594 29.8331 44.2673 29.6774 44.1465 29.5454C44.0256 29.4134 43.8786 29.308 43.7148 29.2359C43.551 29.1638 43.374 29.1265 43.195 29.1265C43.0161 29.1265 42.839 29.1638 42.6752 29.2359C42.5114 29.308 42.3644 29.4134 42.2436 29.5454C42.1227 29.6774 42.0307 29.8331 41.9732 30.0026C41.9158 30.1721 41.8943 30.3517 41.91 30.53V32.59C41.8943 32.7683 41.9158 32.9479 41.9732 33.1174C42.0307 33.2869 42.1227 33.4426 42.2436 33.5746C42.3644 33.7066 42.5114 33.812 42.6752 33.8841C42.839 33.9562 43.0161 33.9935 43.195 33.9935C43.374 33.9935 43.551 33.9562 43.7148 33.8841C43.8786 33.812 44.0256 33.7066 44.1465 33.5746C44.2673 33.4426 44.3594 33.2869 44.4168 33.1174C44.4742 32.9479 44.4958 32.7683 44.48 32.59V30.53Z" fill="#222222"/>
<path d="M56.0001 4.58998C56.1172 4.58815 56.2332 4.61204 56.3401 4.65998C56.4449 4.70438 56.5401 4.76893 56.6201 4.84998C56.7797 5.02105 56.8689 5.24601 56.8701 5.47998L56.5601 21.81H57.8201C57.9401 21.81 63.5901 22.26 64.1401 28.88C64.3201 31.04 64.5201 33.19 64.7301 35.35C65.1101 39.35 65.5101 43.46 65.7301 47.55C65.9701 52.35 66.0201 56.3 65.8601 59.97V61.6C65.7801 65.16 65.6801 69.6 63.3601 72.15C60.7001 75 56.1001 75.43 52.0701 75.43C50.9201 75.43 49.8101 75.43 48.8101 75.35H48.3401C46.4901 75.29 44.2101 75.26 41.9101 75.26C38.4101 75.26 34.9101 75.32 32.7401 75.4H32.0001H31.2801C30.2001 75.46 28.9301 75.54 27.5701 75.54C23.8301 75.54 19.4201 74.95 16.5701 71.86C12.0401 66.97 14.8401 40.86 17.3901 34.19C17.5801 33.68 17.7701 33.19 17.9501 32.7C18.7403 30.3302 19.7794 28.0508 21.0501 25.9C21.6603 24.8677 22.4834 23.9771 23.4644 23.2874C24.4455 22.5977 25.5621 22.1248 26.7401 21.9L27.0401 5.39998C27.0479 5.1714 27.1406 4.95392 27.3001 4.78998C27.467 4.63013 27.689 4.54062 27.9201 4.53998H56.0001V4.58998ZM56.0001 2.83998H28.0001C27.3006 2.82654 26.6242 3.09024 26.1184 3.57356C25.6126 4.05689 25.3184 4.72062 25.3001 5.41998L25.0001 20.65C22.7493 21.4332 20.8382 22.9699 19.5901 25C18.243 27.2536 17.1464 29.6479 16.3201 32.14V32.22C16.1501 32.68 15.9701 33.15 15.7901 33.62C13.3601 40 10.0001 67.32 15.3301 73.11C17.9301 76 22.0001 77.35 27.5801 77.35C29.0001 77.35 30.3301 77.27 31.4001 77.2H32.8001C35.1201 77.05 38.7001 76.95 41.9101 76.95C44.4001 76.95 46.6001 76.95 48.2801 77.04H48.7501C49.7501 77.04 50.9001 77.12 52.0701 77.12C55.9401 77.12 61.4301 76.72 64.5601 73.27C67.3201 70.27 67.4201 65.43 67.5601 61.58V60C67.7201 56.28 67.6701 52.28 67.4301 47.42C67.2101 43.29 66.8201 39.15 66.4301 35.14C66.2301 33.03 66.0201 30.84 65.8401 28.69C65.3101 22.31 60.5701 20.37 58.3001 20.07L58.5801 5.46998C58.584 5.12731 58.5194 4.78731 58.3901 4.46998C58.2597 4.15037 58.0696 3.85851 57.8301 3.60998C57.5967 3.35353 57.3145 3.14616 57.0001 2.99998C56.6847 2.86188 56.3443 2.79038 56.0001 2.78998V2.83998Z" fill="white"/>
</svg>
