<svg width="80" height="80" viewBox="0 0 80 80" fill="none" xmlns="http://www.w3.org/2000/svg">
<path d="M50.91 5C52.3713 5.00283 53.8192 5.2775 55.18 5.81C58.0484 6.94442 60.3498 9.17007 61.5795 11.9989C62.8093 14.8277 62.867 18.0287 61.74 20.9C61.6738 21.0668 61.5588 21.2097 61.41 21.31C61.2613 21.4162 61.0827 21.4722 60.9 21.47C60.7874 21.4687 60.6758 21.4484 60.57 21.41L56.11 19.65C56.9627 23.1028 57.5181 26.6224 57.77 30.17C57.8426 30.2956 57.8869 30.4355 57.9 30.58V33.64C57.8998 36.5593 57.4305 39.4596 56.51 42.23C55.99 43.7435 55.2558 45.1747 54.33 46.48C52.0543 49.5654 48.6835 51.6623 44.91 52.34C44.8455 52.3993 44.771 52.4467 44.69 52.48C43.7087 53.042 42.9896 53.9696 42.69 55.06C42.4004 56.163 42.2592 57.2997 42.27 58.44V70.35H49.8C50.3903 70.3887 50.9437 70.6505 51.3481 71.0823C51.7524 71.5141 51.9774 72.0835 51.9774 72.675C51.9774 73.2665 51.7524 73.8359 51.3481 74.2677C50.9437 74.6995 50.3903 74.9613 49.8 75H29.61C29.0197 74.9613 28.4663 74.6995 28.0619 74.2677C27.6576 73.8359 27.4326 73.2665 27.4326 72.675C27.4326 72.0835 27.6576 71.5141 28.0619 71.0823C28.4663 70.6505 29.0197 70.3887 29.61 70.35H37.21V57.46C37.21 53.65 34.57 52.6 34.55 52.59C34.4633 52.5516 34.3825 52.5011 34.31 52.44C30.5009 51.8114 27.0883 49.7193 24.8 46.61C23.5593 44.8328 22.6731 42.8329 22.19 40.72C21.9413 39.8768 21.7476 39.0183 21.61 38.15C21.5914 38.0014 21.6085 37.8506 21.66 37.71C20.92 31.36 22.21 23.21 25.54 13.56C25.7123 13.1212 26.0253 12.7519 26.43 12.51L26.56 12.42C28.56 10.95 33.82 9.95 39.69 9.93H41.4C42.471 8.40318 43.8949 7.15762 45.5507 6.29928C47.2064 5.44094 49.045 4.99521 50.91 5ZM50.91 3.25C48.9231 3.25182 46.9616 3.6961 45.1679 4.55059C43.3742 5.40507 41.7933 6.6483 40.54 8.19H39.7C34.7 8.19 28.3 8.96 25.52 11.03L25.41 11.1C24.7113 11.5524 24.1779 12.219 23.89 13C20.53 22.71 19.19 31 19.89 37.61C19.84 37.8811 19.84 38.159 19.89 38.43C20.028 39.3632 20.2318 40.2855 20.5 41.19C21.0476 43.4997 22.0209 45.687 23.37 47.64C25.8429 51.0078 29.5034 53.3099 33.61 54.08C33.6917 54.13 33.779 54.1703 33.87 54.2C34.06 54.3 35.45 55.03 35.45 57.46V68.6H29.61C28.5642 68.6518 27.5783 69.1038 26.8564 69.8623C26.1345 70.6208 25.7319 71.6279 25.7319 72.675C25.7319 73.7221 26.1345 74.7292 26.8564 75.4877C27.5783 76.2462 28.5642 76.6982 29.61 76.75H49.77C50.8158 76.6982 51.8017 76.2462 52.5236 75.4877C53.2455 74.7292 53.6481 73.7221 53.6481 72.675C53.6481 71.6279 53.2455 70.6208 52.5236 69.8623C51.8017 69.1038 50.8158 68.6518 49.77 68.6H44V58.51C43.9895 57.525 44.1106 56.543 44.36 55.59C44.5291 55.0331 44.8597 54.5389 45.31 54.17C45.4185 54.1233 45.5223 54.0663 45.62 54C49.683 53.1825 53.295 50.879 55.75 47.54C56.7245 46.1382 57.5049 44.611 58.07 43L58.14 42.77C59.0982 39.8658 59.5909 36.8282 59.6 33.77C59.6 32.69 59.66 31.65 59.6 30.61C59.5908 30.3405 59.5402 30.0741 59.45 29.82C59.2669 27.3784 58.9329 24.9504 58.45 22.55L59.86 23.1C60.1765 23.2321 60.5171 23.2968 60.86 23.29C61.3945 23.2885 61.9166 23.1284 62.36 22.83C62.8121 22.5372 63.1616 22.1108 63.36 21.61C64.1757 19.5781 64.4783 17.3765 64.2411 15.1999C64.0039 13.0232 63.2342 10.9385 62 9.13C60.7733 7.3177 59.1208 5.83395 57.1873 4.80881C55.2538 3.78367 53.0984 3.24843 50.91 3.25Z" fill="white"/>
<path d="M53.53 13.91C55.3 19.2 65.41 52.05 39.61 52.05C13.4 52.05 24.41 19.74 26.44 13.86C26.55 13.52 26.86 13.36 27.14 13.15C28.9 11.84 34.01 10.85 39.74 10.84H41.49" fill="#EFF4FD"/>
<path d="M39.61 52.93C32.81 52.93 27.85 50.8 24.86 46.6C20.17 40.01 20.43 28.6 25.61 13.6C25.7779 13.1775 26.0847 12.8248 26.48 12.6L26.61 12.5C28.6 11 33.87 10 39.74 10H41.49C41.7059 10.0231 41.9057 10.1253 42.0508 10.2868C42.196 10.4483 42.2763 10.6578 42.2763 10.875C42.2763 11.0922 42.196 11.3017 42.0508 11.4632C41.9057 11.6247 41.7059 11.7269 41.49 11.75H39.74C33.68 11.75 29.08 12.83 27.66 13.88L27.49 14.01C27.4064 14.0607 27.3292 14.1211 27.26 14.19C22.34 28.43 22 39.59 26.26 45.61C28.91 49.32 33.39 51.21 39.59 51.21C45.79 51.21 50.11 49.3 52.81 45.56C59.54 36.21 53.88 17.81 52.68 14.22C52.6298 14.1081 52.6036 13.9869 52.6031 13.8642C52.6025 13.7415 52.6276 13.6201 52.6767 13.5077C52.7259 13.3953 52.7979 13.2944 52.8884 13.2115C52.9788 13.1286 53.0855 13.0655 53.2018 13.0263C53.318 12.9871 53.4411 12.9726 53.5633 12.9838C53.6855 12.995 53.8039 13.0316 53.9111 13.0913C54.0183 13.1509 54.1118 13.2324 54.1857 13.3303C54.2595 13.4282 54.3121 13.5405 54.34 13.66C56.09 18.91 61.27 36.79 54.23 46.58C51.2 50.78 46.28 52.93 39.61 52.93Z" fill="#222222"/>
<path d="M40.93 12.71C41.4434 11.3948 42.2116 10.1939 43.1904 9.17637C44.1692 8.15884 45.3394 7.34469 46.6338 6.78067C47.9281 6.21666 49.3212 5.91389 50.7329 5.88975C52.1446 5.86561 53.5471 6.12058 54.86 6.64002C56.1722 7.15134 57.3689 7.91972 58.38 8.90002C59.3984 9.87574 60.2135 11.0435 60.7782 12.3359C61.3429 13.6284 61.646 15.0198 61.67 16.43C61.7018 17.8423 61.4502 19.2466 60.93 20.56L40.93 12.71Z" fill="#FFDB6F"/>
<path d="M51.07 17.16C50.9601 17.1655 50.8505 17.1449 50.75 17.1C50.5349 17.0151 50.3619 16.849 50.2683 16.6375C50.1747 16.4261 50.1682 16.1863 50.25 15.97L52.91 9.21003C52.9968 8.99432 53.1653 8.82172 53.3789 8.72991C53.5925 8.6381 53.8338 8.63454 54.05 8.72003C54.1573 8.76084 54.2553 8.82271 54.3383 8.902C54.4213 8.98129 54.4876 9.07639 54.5333 9.18171C54.5789 9.28702 54.6031 9.40041 54.6042 9.51519C54.6054 9.62997 54.5835 9.74382 54.54 9.85003L51.88 16.61C51.8158 16.7724 51.7042 16.9117 51.5597 17.0098C51.4153 17.1079 51.2446 17.1602 51.07 17.16Z" fill="#F19C22"/>
<path d="M51.07 17.16C50.9327 17.1604 50.7971 17.129 50.6739 17.0683C50.5508 17.0076 50.4433 16.9192 50.36 16.81C50.2252 16.6224 50.1696 16.3893 50.2051 16.1611C50.2407 15.9328 50.3645 15.7277 50.55 15.59L56.29 11.36C56.3799 11.2728 56.4875 11.206 56.6056 11.1643C56.7237 11.1225 56.8494 11.1067 56.9741 11.118C57.0988 11.1293 57.2197 11.1673 57.3283 11.2296C57.437 11.2919 57.5309 11.3769 57.6037 11.4788C57.6765 11.5807 57.7265 11.6971 57.7501 11.8201C57.7738 11.9431 57.7706 12.0697 57.7408 12.1914C57.711 12.313 57.6553 12.4268 57.5775 12.5249C57.4997 12.6231 57.4016 12.7033 57.29 12.76L51.59 17C51.4389 17.1089 51.2562 17.1651 51.07 17.16Z" fill="#F19C22"/>
<path d="M51.07 17.16C50.8393 17.16 50.618 17.0683 50.4548 16.9052C50.2917 16.742 50.2 16.5207 50.2 16.29C50.2 16.0593 50.2917 15.838 50.4548 15.6748C50.618 15.5117 50.8393 15.42 51.07 15.42L58.18 15.02C58.2943 15.0134 58.4087 15.0294 58.5168 15.0671C58.6248 15.1047 58.7244 15.1633 58.8098 15.2395C58.8953 15.3156 58.9649 15.4078 59.0147 15.5109C59.0644 15.6139 59.0934 15.7257 59.1 15.84C59.1066 15.9542 59.0906 16.0687 59.0529 16.1767C59.0153 16.2848 58.9567 16.3844 58.8806 16.4698C58.8044 16.5552 58.7122 16.6248 58.6091 16.6746C58.5061 16.7244 58.3943 16.7534 58.28 16.76L51.17 17.16H51.07Z" fill="#F19C22"/>
<path d="M51 17.12C50.7962 17.1211 50.5985 17.0507 50.4413 16.9209C50.2841 16.7912 50.1775 16.6103 50.14 16.41L48.83 9.41C48.809 9.29706 48.8104 9.18109 48.8342 9.06871C48.858 8.95633 48.9038 8.84974 48.9688 8.75503C49.0338 8.66031 49.1168 8.57933 49.2131 8.51669C49.3094 8.45406 49.4171 8.41101 49.53 8.39C49.6429 8.36899 49.7589 8.37043 49.8713 8.39424C49.9837 8.41804 50.0903 8.46375 50.185 8.52875C50.2797 8.59375 50.3607 8.67677 50.4233 8.77307C50.4859 8.86937 50.529 8.97706 50.55 9.09L51.86 16.09C51.8953 16.3149 51.8421 16.5446 51.7116 16.7311C51.581 16.9176 51.3834 17.0462 51.16 17.09L51 17.12Z" fill="#F19C22"/>
<path d="M51 17.12C50.8831 17.1202 50.7672 17.0973 50.6591 17.0527C50.551 17.0081 50.4528 16.9426 50.37 16.86L45.44 11.72C45.3483 11.6399 45.2742 11.5416 45.2224 11.4314C45.1707 11.3212 45.1423 11.2015 45.1392 11.0798C45.136 10.9581 45.1582 10.837 45.2043 10.7243C45.2503 10.6116 45.3193 10.5097 45.4067 10.425C45.4942 10.3403 45.5983 10.2747 45.7125 10.2323C45.8266 10.1899 45.9483 10.1716 46.0698 10.1787C46.1914 10.1857 46.3102 10.2179 46.4186 10.2732C46.5271 10.3285 46.6229 10.4057 46.7 10.5L51.63 15.64C51.7937 15.8048 51.8855 16.0277 51.8855 16.26C51.8855 16.4923 51.7937 16.7151 51.63 16.88C51.5466 16.9604 51.4478 17.023 51.3395 17.0643C51.2312 17.1055 51.1158 17.1245 51 17.12Z" fill="#F19C22"/>
<path d="M53.14 16.84C52.7 17.94 48.72 16.37 49.14 15.27C49.2426 15.0077 49.3961 14.7684 49.5918 14.5658C49.7875 14.3633 50.0214 14.2015 50.28 14.09C50.809 13.8749 51.401 13.8749 51.93 14.09C52.1926 14.1947 52.4321 14.3501 52.6345 14.5475C52.837 14.7448 52.9986 14.9801 53.11 15.24C53.3286 15.7489 53.3394 16.3232 53.14 16.84Z" fill="#DB8C07"/>
<path d="M57.92 19.39C57.8093 19.3919 57.6998 19.368 57.6 19.32L44.21 14.05C44.1036 14.008 44.0066 13.9454 43.9244 13.8659C43.8422 13.7864 43.7765 13.6914 43.731 13.5865C43.6855 13.4816 43.6611 13.3687 43.6592 13.2543C43.6573 13.14 43.678 13.0264 43.72 12.92C43.762 12.8136 43.8246 12.7166 43.9041 12.6344C43.9837 12.5522 44.0786 12.4865 44.1835 12.441C44.2885 12.3955 44.4013 12.3711 44.5157 12.3692C44.63 12.3673 44.7436 12.388 44.85 12.43L58.24 17.7C58.4251 17.7784 58.5778 17.9178 58.6726 18.095C58.7675 18.2722 58.7988 18.4765 58.7614 18.674C58.724 18.8715 58.6202 19.0502 58.4671 19.1805C58.314 19.3108 58.1209 19.3847 57.92 19.39Z" fill="#F19C22"/>
<path d="M42.74 13.05L41.39 12.51C41.8877 11.2399 42.632 10.0809 43.58 9.09999C44.5301 8.12182 45.661 7.33732 46.91 6.78999C48.1594 6.24614 49.5037 5.95386 50.8661 5.92983C52.2285 5.90581 53.5822 6.15053 54.85 6.64999C57.4128 7.65978 59.4697 9.64594 60.5686 12.1718C61.6675 14.6977 61.7183 17.5566 60.71 20.12L59.26 19.55C59.26 19.55 61.26 14.16 57.37 10.07C56.506 9.16431 55.4549 8.4579 54.29 7.99999C53.1203 7.54011 51.8649 7.33883 50.61 7.40999C45.1 7.68999 42.74 13.05 42.74 13.05Z" fill="#DB8C07"/>
<path d="M60.93 21.44C60.8193 21.4419 60.7097 21.4179 60.61 21.37L40.61 13.52C40.3949 13.4351 40.2219 13.269 40.1283 13.0575C40.0347 12.846 40.0282 12.6063 40.11 12.39C40.954 10.254 42.4116 8.41579 44.2988 7.10704C46.1861 5.79829 48.4187 5.07763 50.715 5.03592C53.0112 4.9942 55.2685 5.63331 57.202 6.87266C59.1356 8.112 60.659 9.89609 61.58 12C62.2012 13.4001 62.541 14.9087 62.58 16.44C62.6211 17.9657 62.3488 19.4837 61.78 20.9C61.713 21.0679 61.5949 21.2105 61.4423 21.3074C61.2897 21.4043 61.1105 21.4507 60.93 21.44ZM42.1 12.23L60.4 19.41C61.0473 17.1911 60.9059 14.8164 60 12.69C58.9512 10.2908 56.993 8.406 54.5554 7.44973C52.1178 6.49346 49.4004 6.54391 47 7.58999C44.8689 8.50779 43.1325 10.152 42.1 12.23Z" fill="#222222"/>
<path d="M35.77 20.52L27.13 21.89C27.0621 21.8984 26.9966 21.9206 26.9376 21.9553C26.8786 21.99 26.8274 22.0365 26.7871 22.0918C26.7467 22.1471 26.7182 22.2101 26.7032 22.2769C26.6883 22.3436 26.6872 22.4128 26.7 22.48L28.07 31.13C28.0921 31.2648 28.1664 31.3855 28.2769 31.466C28.3873 31.5464 28.5249 31.5802 28.66 31.56L37.3 30.19C37.4374 30.1678 37.5606 30.0925 37.643 29.9802C37.7253 29.8679 37.7602 29.7278 37.74 29.59L36.36 21C36.3567 20.9283 36.3383 20.8581 36.3059 20.794C36.2736 20.7299 36.2281 20.6733 36.1724 20.628C36.1167 20.5827 36.0521 20.5496 35.9827 20.531C35.9134 20.5124 35.8409 20.5087 35.77 20.52Z" fill="#EFF4FD"/>
<path d="M28.58 32.44C28.2821 32.438 27.9921 32.3437 27.75 32.17C27.602 32.0607 27.4772 31.9231 27.3828 31.7652C27.2883 31.6072 27.2262 31.4321 27.2 31.25L25.83 22.62C25.7822 22.2684 25.8679 21.9117 26.07 21.62C26.1713 21.4558 26.3068 21.3154 26.4673 21.2084C26.6278 21.1014 26.8095 21.0303 27 21L35.64 19.62C35.9942 19.577 36.3516 19.6699 36.64 19.88C36.7874 19.9891 36.9112 20.1268 37.004 20.2849C37.0968 20.443 37.1566 20.6182 37.18 20.8L38.56 29.42C38.5885 29.6019 38.5807 29.7877 38.5373 29.9666C38.4939 30.1455 38.4156 30.3141 38.3069 30.4627C38.1982 30.6113 38.0613 30.7371 37.904 30.8327C37.7466 30.9283 37.572 30.992 37.39 31.02L28.8 32.42L28.58 32.44ZM27.62 22.7L28.88 30.64L36.82 29.38L35.55 21.44L27.62 22.7Z" fill="#222222"/>
<path d="M52.58 21.58L44 19.93C43.8647 19.9036 43.7245 19.9319 43.6101 20.0088C43.4958 20.0857 43.4166 20.2048 43.39 20.34L41.74 28.94C41.7165 29.0764 41.7473 29.2166 41.8258 29.3305C41.9042 29.4445 42.0242 29.5233 42.16 29.55L50.75 31.19C50.8852 31.2165 51.0255 31.1881 51.1398 31.1112C51.2542 31.0344 51.3334 30.9152 51.36 30.78L53 22.19C53.0144 22.1222 53.0149 22.0522 53.0013 21.9842C52.9878 21.9162 52.9605 21.8517 52.9212 21.7947C52.8819 21.7376 52.8314 21.6891 52.7727 21.6522C52.714 21.6153 52.6485 21.5907 52.58 21.58Z" fill="#EFF4FD"/>
<path d="M50.83 32.08H50.57L42 30.41C41.6394 30.3396 41.321 30.1303 41.1133 29.8273C40.9057 29.5242 40.8255 29.1517 40.89 28.79L42.54 20.18C42.6054 19.8199 42.8102 19.5001 43.11 19.29C43.4204 19.0796 43.8015 19.0005 44.17 19.07L52.76 20.72C52.9407 20.756 53.1125 20.8276 53.2653 20.9307C53.418 21.0337 53.5488 21.166 53.65 21.32C53.7536 21.472 53.8248 21.6436 53.8592 21.8242C53.8936 22.0049 53.8905 22.1907 53.85 22.37L52.22 30.94C52.1554 31.2612 51.9817 31.5502 51.7284 31.758C51.475 31.9658 51.1576 32.0795 50.83 32.08ZM42.65 28.75L50.56 30.27L52.06 22.37L44.17 20.86L42.65 28.75Z" fill="#222222"/>
<path d="M41 21.68L33.12 25.49C32.9966 25.5523 32.9024 25.6604 32.8576 25.7912C32.8128 25.922 32.8208 26.0651 32.88 26.19L36.7 34.06C36.7288 34.1217 36.7698 34.1769 36.8203 34.2225C36.8709 34.2681 36.9301 34.3032 36.9944 34.3255C37.0587 34.3479 37.1268 34.3572 37.1948 34.3528C37.2627 34.3484 37.3291 34.3304 37.39 34.3L45.27 30.49C45.3916 30.4258 45.4841 30.3176 45.5287 30.1876C45.5733 30.0575 45.5666 29.9153 45.51 29.79L41.69 21.92C41.6611 21.8583 41.6202 21.8031 41.5697 21.7575C41.5191 21.7119 41.4599 21.6768 41.3956 21.6545C41.3313 21.6321 41.2632 21.6228 41.1952 21.6272C41.1273 21.6316 41.0609 21.6496 41 21.68Z" fill="#EFF4FD"/>
<path d="M37.11 35.23C36.9501 35.2286 36.7914 35.2016 36.64 35.15C36.2918 35.0239 36.0078 34.7651 35.85 34.43L32 26.57C31.841 26.2354 31.82 25.8517 31.9416 25.5018C32.0633 25.1518 32.3177 24.8638 32.65 24.7L40.53 20.89C40.6952 20.8086 40.8751 20.7614 41.0589 20.7511C41.2427 20.7407 41.4268 20.7676 41.6 20.83C41.9482 20.9561 42.2323 21.215 42.39 21.55L46.21 29.41C46.3641 29.7427 46.3835 30.1221 46.2642 30.4688C46.1449 30.8155 45.8962 31.1026 45.57 31.27L37.68 35.09C37.5017 35.1756 37.3076 35.2233 37.11 35.23ZM33.77 26.12L37.28 33.36L44.52 29.86L41 22.62L33.77 26.12Z" fill="#222222"/>
<g opacity="0.95">
<path opacity="0.95" d="M56 24.07C55.54 20.61 49.64 22.58 43.25 24.3C36.38 26.15 32.75 28.54 23.38 25.3C18 54.66 39.67 51.6 39.67 51.6C39.67 51.6 59.84 54.12 56 24.07Z" fill="#F7AFA6"/>
<path opacity="0.95" d="M37.94 52.57C35.24 52.57 30.13 51.98 26.3 48C21.86 43.38 20.57 35.69 22.49 25.14C22.5109 25.0163 22.5595 24.8989 22.6323 24.7968C22.705 24.6946 22.8 24.6102 22.91 24.55C23.0172 24.4857 23.137 24.4453 23.2613 24.4315C23.3855 24.4177 23.5113 24.4308 23.63 24.47C31.12 27.06 34.7 25.96 39.63 24.47C40.63 24.14 41.77 23.81 42.96 23.47L44.67 23C49.67 21.63 53.57 20.55 55.61 21.9C55.9598 22.1349 56.2521 22.4458 56.4651 22.8094C56.6781 23.173 56.8062 23.58 56.84 24C58.28 35.23 56.6 43.36 51.84 48.14C50.2375 49.6875 48.3253 50.878 46.2293 51.633C44.1334 52.3879 41.9013 52.6902 39.68 52.52C39.1014 52.5699 38.5205 52.5866 37.94 52.57ZM24 26.45C22.44 35.89 23.63 42.73 27.52 46.79C32.25 51.69 39.44 50.79 39.52 50.73H39.75C41.7276 50.8754 43.7137 50.6053 45.5806 49.937C47.4475 49.2688 49.1539 48.2172 50.59 46.85C54.93 42.46 56.44 34.85 55.07 24.18C55.0612 24.0183 55.0163 23.8607 54.9384 23.7187C54.8605 23.5768 54.7517 23.4542 54.62 23.36C53.24 22.45 49.11 23.59 45.11 24.68L43.42 25.15C42.24 25.46 41.17 25.79 40.14 26.15C35.31 27.61 31.42 28.8 24 26.45Z" fill="#F7AFA6"/>
</g>
<path d="M44.3 51.71C43.6867 52.0257 43.1453 52.4649 42.71 53C42.2803 53.5512 41.9673 54.184 41.79 54.86C41.4774 56.0377 41.3227 57.2516 41.33 58.47V70.87H38.11V57.46C38.11 52.99 34.87 51.74 34.87 51.74" fill="#EFF4FD"/>
<path d="M41.33 71.78H38.11C37.9949 71.7813 37.8807 71.7598 37.774 71.7167C37.6673 71.6735 37.5702 71.6097 37.4883 71.5287C37.4065 71.4478 37.3415 71.3515 37.2972 71.2453C37.2528 71.1391 37.23 71.0251 37.23 70.91V57.46C37.23 53.68 34.66 52.6 34.55 52.55C34.3338 52.4665 34.1597 52.3005 34.066 52.0886C33.9722 51.8766 33.9665 51.6361 34.05 51.42C34.1335 51.2038 34.2995 51.0297 34.5114 50.936C34.7234 50.8422 34.9638 50.8365 35.18 50.92C35.34 50.98 38.98 52.45 38.98 57.46V70H40.45V58.51C40.4454 57.2174 40.6101 55.9298 40.94 54.68C41.1442 53.8898 41.5046 53.1486 42 52.5C42.5074 51.855 43.1445 51.3236 43.87 50.94C43.9711 50.8862 44.0819 50.8528 44.1959 50.8417C44.3099 50.8307 44.425 50.8422 44.5346 50.8756C44.6441 50.909 44.746 50.9637 44.8345 51.0365C44.9229 51.1094 44.9962 51.1989 45.05 51.3C45.1038 51.4011 45.1372 51.5119 45.1483 51.6259C45.1593 51.7399 45.1478 51.855 45.1144 51.9646C45.081 52.0741 45.0263 52.176 44.9535 52.2645C44.8806 52.3529 44.7911 52.4262 44.69 52.48C44.183 52.7536 43.7372 53.1279 43.38 53.58C43.0219 54.0397 42.76 54.5669 42.61 55.13C42.3191 56.2295 42.1745 57.3626 42.18 58.5V70.91C42.1801 71.1373 42.0911 71.3556 41.9323 71.5182C41.7734 71.6808 41.5573 71.7748 41.33 71.78Z" fill="#222222"/>
<g opacity="0.8">
<path opacity="0.8" d="M57 30.6C55.41 28.6 49.36 33 43 34.72C36.12 36.57 31.91 36.1 22.55 32.82C22.55 53.48 39.81 52.05 39.81 52.05C39.81 52.05 57.61 53.29 57 30.6Z" fill="#F38F82"/>
<path opacity="0.8" d="M39.05 53C34.7509 53.0039 30.598 51.4395 27.37 48.6C23.58 45.11 21.66 39.8 21.66 32.82C21.6639 32.6812 21.7001 32.5453 21.7659 32.423C21.8317 32.3008 21.9252 32.1956 22.0389 32.1159C22.1526 32.0362 22.2833 31.9842 22.4207 31.9641C22.5581 31.944 22.6982 31.9563 22.83 32C32.22 35.3 36.14 35.67 42.76 33.89C45.1262 33.1802 47.4359 32.2944 49.67 31.24C53.51 29.54 56.28 28.32 57.67 30.07C57.7924 30.2157 57.8597 30.3998 57.86 30.59C58.08 38.48 56.14 44.45 52.09 48.33C48.7473 51.4031 44.339 53.0531 39.8 52.93L39.05 53ZM23.43 34.06C23.64 39.9 25.36 44.36 28.54 47.3C33.25 51.64 39.66 51.18 39.73 51.18H39.86C43.9383 51.2448 47.8873 49.7496 50.9 47C54.5 43.54 56.25 38.15 56.12 31C55.27 30.66 52.58 31.85 50.38 32.82C48.0647 33.91 45.6714 34.8259 43.22 35.56C36.54 37.36 32.31 37.07 23.43 34.06Z" fill="#F38F82"/>
</g>
<g opacity="0.8">
<path opacity="0.8" d="M55.61 41.94C54.02 39.94 49.2 40.07 42.81 41.79C35.94 43.64 28.81 43.05 22.5 38.01C24.7 52.09 39.66 52.01 39.66 52.01C39.66 52.01 51.28 52.78 55.61 41.94Z" fill="#F27F70"/>
<path opacity="0.8" d="M40.06 52.89H39.59C39.23 52.89 23.9 52.68 21.59 38.16C21.5663 37.9844 21.5943 37.8057 21.6707 37.6458C21.7471 37.486 21.8685 37.3519 22.02 37.26C22.1741 37.167 22.3535 37.1247 22.5329 37.1391C22.7123 37.1534 22.8827 37.2237 23.02 37.34C28.54 41.74 35.11 42.96 42.56 40.95C47.56 39.6 54.03 38.58 56.27 41.41C56.3681 41.5278 56.4321 41.6703 56.455 41.8219C56.4779 41.9735 56.4589 42.1284 56.4 42.27C52.41 52.31 42.33 52.89 40.06 52.89ZM39.65 51.14C40.15 51.14 50.38 51.7 54.57 42.14C52.97 40.92 48.75 41.14 43.04 42.62C35.85 44.56 29.41 43.7 23.85 40.06C27 51.07 39.49 51.13 39.65 51.14Z" fill="#F27F70"/>
</g>
<path d="M39.61 52.93C32.81 52.93 27.85 50.8 24.86 46.6C20.17 40.01 20.43 28.6 25.61 13.6C25.7779 13.1775 26.0847 12.8248 26.48 12.6L26.61 12.5C28.6 11 33.87 10 39.74 10H41.49C41.7059 10.0231 41.9057 10.1253 42.0508 10.2868C42.196 10.4483 42.2763 10.6578 42.2763 10.875C42.2763 11.0922 42.196 11.3017 42.0508 11.4632C41.9057 11.6247 41.7059 11.7269 41.49 11.75H39.74C33.68 11.75 29.08 12.83 27.66 13.88L27.49 14.01C27.4064 14.0607 27.3292 14.1211 27.26 14.19C22.34 28.43 22 39.59 26.26 45.61C28.91 49.32 33.39 51.21 39.59 51.21C45.79 51.21 50.11 49.3 52.81 45.56C59.54 36.21 53.88 17.81 52.68 14.22C52.6298 14.1081 52.6036 13.9869 52.6031 13.8642C52.6025 13.7415 52.6276 13.6201 52.6767 13.5077C52.7259 13.3953 52.7979 13.2944 52.8884 13.2115C52.9788 13.1286 53.0855 13.0655 53.2018 13.0263C53.318 12.9871 53.4411 12.9726 53.5633 12.9838C53.6855 12.995 53.8039 13.0316 53.9111 13.0913C54.0183 13.1509 54.1118 13.2324 54.1857 13.3303C54.2595 13.4282 54.3121 13.5405 54.34 13.66C56.09 18.91 61.27 36.79 54.23 46.58C51.2 50.78 46.28 52.93 39.61 52.93Z" fill="#222222"/>
<path d="M40.38 17.61C34.15 17.61 27.63 16.78 26.12 15C25.9177 14.7783 25.7792 14.506 25.7193 14.2119C25.6595 13.9179 25.6804 13.6131 25.78 13.33C25.8593 13.1116 26.0208 12.9329 26.2301 12.832C26.4394 12.7311 26.6798 12.716 26.9 12.79C27.1182 12.8691 27.2963 13.0311 27.3955 13.2409C27.4948 13.4507 27.5072 13.6911 27.43 13.91L26.61 13.62L27.43 13.91C28.13 15.32 40.43 16.68 48.63 15.27C49.17 15.18 49.72 15.05 50.33 14.89C52.05 14.41 52.63 13.95 52.7 13.81C52.6998 13.698 52.7226 13.5871 52.7669 13.4842C52.8112 13.3813 52.8761 13.2886 52.9576 13.2117C53.0391 13.1349 53.1355 13.0756 53.2408 13.0374C53.3462 12.9993 53.4582 12.9832 53.57 12.99C53.8043 13.0029 54.0246 13.1058 54.1849 13.2772C54.3451 13.4486 54.4329 13.6753 54.43 13.91C54.43 15.04 53.28 15.91 50.79 16.58C50.12 16.76 49.51 16.89 48.92 16.99C46.0953 17.4313 43.2389 17.6387 40.38 17.61Z" fill="#222222"/>
<path d="M49.82 71.26H29.51C29.3301 71.26 29.152 71.2954 28.9857 71.3643C28.8195 71.4331 28.6685 71.5341 28.5413 71.6613C28.4141 71.7885 28.3131 71.9395 28.2443 72.1057C28.1755 72.2719 28.14 72.4501 28.14 72.63V72.73C28.14 72.9099 28.1755 73.0881 28.2443 73.2543C28.3131 73.4205 28.4141 73.5715 28.5413 73.6987C28.6685 73.826 28.8195 73.9269 28.9857 73.9957C29.152 74.0646 29.3301 74.1 29.51 74.1H49.82C50.1834 74.1 50.5318 73.9557 50.7887 73.6987C51.0457 73.4418 51.19 73.0934 51.19 72.73V72.63C51.19 72.2667 51.0457 71.9182 50.7887 71.6613C50.5318 71.4043 50.1834 71.26 49.82 71.26Z" fill="#CEDEF9"/>
<path d="M49.82 75H29.51C28.9133 75 28.341 74.7629 27.919 74.341C27.4971 73.919 27.26 73.3467 27.26 72.75V72.65C27.26 72.355 27.3183 72.0629 27.4315 71.7905C27.5447 71.518 27.7106 71.2707 27.9196 71.0625C28.1287 70.8544 28.3768 70.6896 28.6497 70.5776C28.9227 70.4656 29.215 70.4087 29.51 70.41H49.82C50.4141 70.41 50.9838 70.646 51.4039 71.0661C51.824 71.4862 52.06 72.0559 52.06 72.65V72.75C52.0613 73.045 52.0044 73.3374 51.8924 73.6103C51.7804 73.8832 51.6156 74.1313 51.4075 74.3404C51.1993 74.5494 50.952 74.7153 50.6795 74.8285C50.4071 74.9417 50.115 75 49.82 75ZM29.51 72.14C29.4448 72.1387 29.38 72.1504 29.3194 72.1744C29.2588 72.1984 29.2036 72.2343 29.157 72.2799C29.1105 72.3256 29.0735 72.38 29.0482 72.4401C29.023 72.5003 29.01 72.5648 29.01 72.63V72.73C29.0126 72.8618 29.0661 72.9875 29.1593 73.0807C29.2525 73.1739 29.3782 73.2274 29.51 73.23H49.82C49.9509 73.2274 50.0755 73.1735 50.1671 73.0801C50.2587 72.9866 50.31 72.8609 50.31 72.73V72.63C50.3114 72.5653 50.2996 72.5009 50.2755 72.4409C50.2513 72.3808 50.2153 72.3262 50.1695 72.2805C50.1238 72.2347 50.0692 72.1987 50.0091 72.1745C49.9491 72.1504 49.8847 72.1386 49.82 72.14H29.51Z" fill="#222222"/>
<path d="M28.14 36.49C28.4762 36.49 28.8049 36.3903 29.0845 36.2035C29.364 36.0167 29.5819 35.7512 29.7106 35.4406C29.8393 35.13 29.8729 34.7881 29.8073 34.4584C29.7417 34.1286 29.5798 33.8257 29.3421 33.5879C29.1043 33.3502 28.8014 33.1883 28.4717 33.1227C28.1419 33.0571 27.8001 33.0908 27.4894 33.2194C27.1788 33.3481 26.9133 33.566 26.7265 33.8456C26.5397 34.1251 26.44 34.4538 26.44 34.79C26.44 35.2409 26.6191 35.6733 26.9379 35.9921C27.2567 36.3109 27.6891 36.49 28.14 36.49Z" fill="white"/>
<path d="M32.21 39.71C32.5462 39.71 32.8749 39.6103 33.1545 39.4235C33.434 39.2367 33.6519 38.9712 33.7806 38.6606C33.9093 38.3499 33.9429 38.0081 33.8773 37.6783C33.8117 37.3486 33.6498 37.0457 33.4121 36.8079C33.1743 36.5702 32.8714 36.4083 32.5417 36.3427C32.2119 36.2771 31.8701 36.3107 31.5594 36.4394C31.2488 36.5681 30.9833 36.786 30.7965 37.0655C30.6097 37.3451 30.51 37.6738 30.51 38.01C30.51 38.4609 30.6891 38.8933 31.0079 39.2121C31.3267 39.5309 31.7591 39.71 32.21 39.71Z" fill="white"/>
<path d="M28.14 40.77C28.3497 40.77 28.5546 40.7079 28.7289 40.5914C28.9032 40.4749 29.0391 40.3094 29.1193 40.1157C29.1995 39.922 29.2205 39.7088 29.1796 39.5032C29.1387 39.2976 29.0378 39.1087 28.8895 38.9605C28.7413 38.8122 28.5524 38.7113 28.3468 38.6704C28.1412 38.6295 27.928 38.6505 27.7344 38.7307C27.5407 38.8109 27.3751 38.9468 27.2586 39.1211C27.1422 39.2954 27.08 39.5004 27.08 39.71C27.0787 39.8496 27.1052 39.988 27.158 40.1172C27.2108 40.2465 27.2888 40.3638 27.3875 40.4625C27.4862 40.5612 27.6036 40.6393 27.7328 40.6921C27.862 40.7449 28.0004 40.7714 28.14 40.77Z" fill="white"/>
</svg>
